<svg fill="#FFFFFF" xmlns="http://www.w3.org/2000/svg"  viewBox="0 0 24 24" width="48px" height="48px"><path d="M 15.509766 1.9882812 A 0.50005 0.50005 0 0 0 15.193359 2.0976562 A 0.50005 0.50005 0 0 0 15.1875 2.1015625 A 0.50005 0.50005 0 0 0 15.160156 2.125 L 7.5898438 9.1152344 L 4.7929688 7.0878906 A 0.50005 0.50005 0 0 0 4.1464844 7.1386719 L 2.1464844 9.1386719 A 0.50005 0.50005 0 0 0 2.1601562 9.8613281 L 4.4746094 11.996094 L 2.1621094 14.125 A 0.50005 0.50005 0 0 0 2.1464844 14.845703 L 4.0898438 16.789062 A 0.50005 0.50005 0 0 0 4.09375 16.794922 A 0.50005 0.50005 0 0 0 4.40625 16.988281 A 0.50005 0.50005 0 0 0 4.4277344 16.992188 A 0.50005 0.50005 0 0 0 4.4335938 16.992188 A 0.50005 0.50005 0 0 0 4.4785156 16.996094 A 0.50005 0.50005 0 0 0 4.5292969 16.996094 A 0.50005 0.50005 0 0 0 4.8554688 16.853516 L 7.5957031 14.878906 L 15.160156 21.861328 A 0.50005 0.50005 0 0 0 15.189453 21.884766 A 0.50005 0.50005 0 0 0 15.199219 21.892578 A 0.50005 0.50005 0 0 0 15.230469 21.914062 A 0.50005 0.50005 0 0 0 15.273438 21.939453 A 0.50005 0.50005 0 0 0 15.824219 21.882812 L 20.757812 18.921875 A 0.50005 0.50005 0 0 0 21 18.492188 L 21 5.4921875 A 0.50005 0.50005 0 0 0 20.757812 5.0644531 L 15.832031 2.109375 A 0.50005 0.50005 0 0 0 15.830078 2.1074219 A 0.50005 0.50005 0 0 0 15.509766 1.9882812 z M 16 3.3769531 L 20 5.7753906 L 20 18.208984 L 16 20.609375 L 16 15.539062 A 0.50005 0.50005 0 0 0 16 15.402344 L 16 8.6074219 A 0.50005 0.50005 0 0 0 16 8.4589844 L 16 3.3769531 z M 15 3.6367188 L 15 8.2792969 L 10.716797 11.380859 L 8.4160156 9.7128906 L 15 3.6367188 z M 4.5527344 8.1484375 L 7.2597656 10.109375 L 7.265625 10.115234 A 0.50005 0.50005 0 0 0 7.3964844 10.208984 L 10.339844 12.341797 L 10.345703 12.347656 A 0.50005 0.50005 0 0 0 10.498047 12.458984 A 0.50005 0.50005 0 0 0 10.5 12.458984 L 15 15.720703 L 15 20.349609 L 5.578125 11.652344 L 5.5761719 11.650391 A 0.50005 0.50005 0 0 0 5.5390625 11.617188 L 3.2226562 9.4785156 L 4.5527344 8.1484375 z M 15 9.5117188 L 15 14.486328 L 11.568359 11.998047 L 15 9.5117188 z M 5.2109375 12.677734 L 6.8457031 14.1875 L 4.5527344 15.837891 L 3.2226562 14.507812 L 5.2109375 12.677734 z"/></svg>